<svg id="Layer_1" data-name="Layer 1" xmlns="http://www.w3.org/2000/svg" viewBox="0 0 103.11 25.09">
  <g>
    <path d="M3.31,12.52h6.8a5.32,5.32,0,0,0,2.35,4.36,5,5,0,0,0,3.19.89,5.33,5.33,0,0,0,5-5.22h2.38c-.06.59-.07,1.18-.18,1.75a9.85,9.85,0,0,1-8.29,8l-.73.12h-1.4a1.58,1.58,0,0,0-.31-.09A9.8,9.8,0,0,1,3.66,15c-.15-.59-.23-1.2-.35-1.81Z" />
    <path d="M100,21H97.83l-.21-.77a3.89,3.89,0,0,1-3,.92,2.29,2.29,0,0,1-2.31-2.95,1.94,1.94,0,0,1,1.58-1.55c.79-.19,1.59-.28,2.39-.42a4.29,4.29,0,0,0,.6-.13c.38-.12.66-.32.64-.78s-.22-.9-.66-1a4.83,4.83,0,0,0-1.42,0,1,1,0,0,0-.77.83c0,.11-.17.26-.27.26-.63,0-1.26,0-1.89,0a2.44,2.44,0,0,1,1.79-2.33,6.3,6.3,0,0,1,3.77-.05,2,2,0,0,1,1.6,2.15c0,1.58,0,3.16,0,4.73a4.14,4.14,0,0,0,.26,1Zm-2.42-3.82c-.55.11-1,.18-1.48.29a5.11,5.11,0,0,0-1.1.3,1,1,0,0,0-.23,1.74,1.82,1.82,0,0,0,2.69-.9A9.62,9.62,0,0,0,97.59,17.19Z" />
    <path d="M48.09,10h2.15c.28,0,.22.23.22.39,0,1.58,0,3.16,0,4.74,0,.81,0,1.62.08,2.43a1.74,1.74,0,0,0,1.68,1.62,4.92,4.92,0,0,0,.94,0A1.74,1.74,0,0,0,55,17.33c0-1.37,0-2.74,0-4.12,0-.93,0-1.87,0-2.8,0-.3.1-.41.4-.4H57c.27,0,.4.07.39.37,0,2.33,0,4.67,0,7a3.74,3.74,0,0,1-3.57,3.78,7.24,7.24,0,0,1-3.14-.25,3.42,3.42,0,0,1-2.48-3.12c-.1-1.24-.07-2.49-.09-3.74S48.09,11.41,48.09,10Z" />
    <path d="M67.44,10v4a2.93,2.93,0,0,1,2.34-1.19,2.89,2.89,0,0,1,2.89,1.66,5.28,5.28,0,0,1,0,5,3.25,3.25,0,0,1-4.51,1.26,5,5,0,0,1-.81-.69l0,.89h-2c0-.15,0-.3,0-.44,0-3.34,0-6.67,0-10,0-.41.12-.52.51-.5S66.84,10,67.44,10Zm3.77,7a12.3,12.3,0,0,0-.49-1.66,1.51,1.51,0,0,0-1.49-.9,1.57,1.57,0,0,0-1.5.9,3.6,3.6,0,0,0,0,3.32,1.57,1.57,0,0,0,1.5.91,1.51,1.51,0,0,0,1.49-.91A11.5,11.5,0,0,0,71.21,17Z" />
    <path d="M76.71,15.44H74.62a2.22,2.22,0,0,1,.93-1.85,3.54,3.54,0,0,1,1.82-.69,6.86,6.86,0,0,1,2.85.19,2,2,0,0,1,1.55,2.14c0,1.23,0,2.47,0,3.7,0,.67.07,1.34.12,2.05-.58,0-1.23,0-1.88,0-.07,0-.17-.12-.2-.2a3.91,3.91,0,0,1-.13-.54,3.07,3.07,0,0,1-1.93.88A6.88,6.88,0,0,1,75.89,21a2,2,0,0,1-1.54-2.16,2,2,0,0,1,1.47-2.11,18.57,18.57,0,0,1,2-.4c.41-.07.82-.12,1.21-.22a.74.74,0,0,0,.63-.75.91.91,0,0,0-.62-1,2.23,2.23,0,0,0-1.57,0A1.23,1.23,0,0,0,76.71,15.44Zm3,1.75-1.52.29a6.23,6.23,0,0,0-1.14.33A1,1,0,0,0,76.51,19a.85.85,0,0,0,.78.73,4.05,4.05,0,0,0,1.1,0,1.34,1.34,0,0,0,1.16-1.12A10.71,10.71,0,0,0,79.66,17.19Z" />
    <path d="M85.65,21h-2.1V13c.6,0,1.19,0,1.78,0a.39.39,0,0,1,.2.27,6.44,6.44,0,0,1,0,.77c.09-.05.13-.05.15-.08a3.05,3.05,0,0,1,3.51-1,2.15,2.15,0,0,1,1.63,2.09c.07.64.08,1.28.09,1.93,0,1.3,0,2.61,0,3.94h-2.1c0-.16,0-.33,0-.5,0-1.51,0-3-.06-4.52,0-.95-.46-1.36-1.28-1.41a1.49,1.49,0,0,0-1.7,1.26,5.86,5.86,0,0,0-.09,1C85.64,18.17,85.65,19.55,85.65,21Z" />
    <path d="M59.33,13.06h2v1.35l.08,0,.21-.32A2.69,2.69,0,0,1,64,12.85c.24,0,.38.06.37.35,0,.54,0,1.09,0,1.67-.25,0-.48,0-.7,0a2,2,0,0,0-2.17,1.93c-.08,1.22-.06,2.44-.08,3.66V21h-2.1Z" />
    <path d="M46.88,20.21v.66c-1,.35-1.48,0-1.75-1.26l-.37.46a3.45,3.45,0,0,1-4.16.74,2.15,2.15,0,0,1-1-2.11A1.74,1.74,0,0,1,40.8,17a23.93,23.93,0,0,1,2.67-.58c.26-.05.52-.06.78-.1a.89.89,0,0,0,.85-.85A1.45,1.45,0,0,0,44,13.73a4.69,4.69,0,0,0-1.67,0,1.63,1.63,0,0,0-1.42,1.73H40a2.52,2.52,0,0,1,2.54-2.56,6.46,6.46,0,0,1,1.91.14A2,2,0,0,1,46,15c0,1.44,0,2.88,0,4.32C46,20.05,46.14,20.17,46.88,20.21Zm-1.73-3.45-1.38.29c-.77.17-1.54.28-2.29.51a1.22,1.22,0,0,0-.95,1.28,1.49,1.49,0,0,0,1,1.42A2.67,2.67,0,0,0,45,18.63,10.75,10.75,0,0,0,45.15,16.76Z" />
    <path d="M13.1,8c.35.72.67,1.37,1,2s.77,1.55,1.12,2.34A2.27,2.27,0,1,1,11,14a2.12,2.12,0,0,1,0-1.53C11.69,11,12.37,9.51,13.1,8Z" />
    <path d="M35.46,15.35a2.78,2.78,0,0,1-.66,0,.43.43,0,0,1-.29-.25,2.28,2.28,0,0,0-3.58-1,1.11,1.11,0,0,0,.18,1.82,8.88,8.88,0,0,0,1.62.57c.46.13.94.19,1.39.34a2,2,0,0,1,1.61,2,2.1,2.1,0,0,1-1.53,2.1,4.43,4.43,0,0,1-3.41-.1,2.55,2.55,0,0,1-1.43-2.32h.87a.44.44,0,0,1,.05.15c.23,1.95,2.82,2.19,4,1.32a1.22,1.22,0,0,0-.2-2.17,16.48,16.48,0,0,0-2-.59,9.08,9.08,0,0,1-1.39-.47,1.9,1.9,0,0,1-.19-3.31,3.68,3.68,0,0,1,3.66-.24A2.35,2.35,0,0,1,35.46,15.35Z" />
    <path d="M11.83,15.65a3.9,3.9,0,0,0,3.3.5,3.8,3.8,0,0,0,2.26-5.38c-1-1.91-2-3.83-3.08-5.73a1.1,1.1,0,0,1-.09-1c.11-.26.18-.54.28-.86a1.94,1.94,0,0,1,.16.24c1.3,2.45,2.63,4.88,3.9,7.34a4.22,4.22,0,0,1-6.73,4.93Z" />
    <path d="M26.68,10.08l.1,0c.85-.1.85-.1.85.74V21h-.95Z" />
    <path d="M38.12,21h-.89V10.1s.06,0,.08,0c.81-.1.81-.1.81.7V21Z" />
  </g>
</svg>
